<svg version="1.2" xmlns="http://www.w3.org/2000/svg" viewBox="0 0 75 61" width="500" height="407">
	<title>logo-svg</title>
	<style>
		.s0 { fill: #f51980 } 
	</style>
	<g>
		<path fill-rule="evenodd" class="s0" d="m38.6 5.4c23.1 0.1 23.4 0.2 25.4 8.6l1.2 4.9 4.6 0.3c4.3 0.3 4.7 0.5 5 3 0.3 2.3-0.1 2.8-1.8 2.8-1.7 0-2.1 0.4-1.5 1.7 0.4 1 1.3 4.7 2.1 8.3 1.5 6.7 1 20.8-0.8 24.2-1.4 2.7-3.8 2.1-5.1-1.2l-1.1-3h-58.2l-1.1 3c-0.6 1.6-1.5 3-2 3-5.1-0.1-7-22.6-2.8-32.7 1.2-2.9 1.2-3.3-0.1-3.3-0.8 0-1.7-0.7-2-1.5-1-2.5 1.6-4.5 5.6-4.5 3.6 0 3.8-0.1 4.4-4.3 0.9-5.3 2.9-8.4 5.8-9 1.3-0.3 11.4-0.4 22.4-0.3zm-20.3 2.6c-1.2 0.5-2.5 1.9-2.8 3.2-1.6 7.4-2.5 11.4-2.5 12.5 0 1 5.6 1.3 24.6 1.3h24.6l-0.6-2.8c-2.5-10.4-3.8-13.3-6.2-14.2-3.2-1.2-34.1-1.2-37.1 0zm-5.8 25c-1.9 0-4.5 2.8-4.5 4.9 0 4 6.1 5.7 8 2.2 1.4-2.7 1.3-3.7-0.6-5.5-0.8-0.9-2.2-1.6-2.9-1.6zm46.5 4.6c0 2.9 2.4 4.8 5.4 4 2.9-0.7 3.9-3.8 1.9-6.5-2.5-3.7-7.3-2.1-7.3 2.5zm-21.5-1.6c-11.8 0-12.5 0.1-12.5 2 0 1.9 0.7 2 12.5 2 11.8 0 12.5-0.1 12.5-2 0-1.9-0.7-2-12.5-2zm-20.2 5.5c-0.3 0.9-0.3 1.8 0 2.2 1 1 3.7-0.6 3.7-2.2 0-2-2.9-2-3.7 0zm39.5-1.3c-1.3-0.2-1.8 0.3-1.8 1.8 0 1.5 0.5 2 1.8 1.8 0.9-0.2 1.7-1 1.7-1.8 0-0.8-0.8-1.6-1.7-1.8zm-19.3 8.2c-16.5 0-23.1 0.2-14.7 0.3 8.4 0.2 21.9 0.2 30 0 8.1-0.1 1.2-0.3-15.3-0.3z"/>
	</g>
</svg>